<svg width="24" height="24" viewBox="0 0 24 24" fill="none" xmlns="http://www.w3.org/2000/svg">
<path fill-rule="evenodd" clip-rule="evenodd" d="M23.7272 12C23.7272 18.4768 18.4768 23.7272 12 23.7272C5.52318 23.7272 0.272705 18.4768 0.272705 12C0.272705 5.52318 5.52318 0.272705 12 0.272705C18.4768 0.272705 23.7272 5.52318 23.7272 12ZM12 22.9091C18.0249 22.9091 22.9091 18.0249 22.9091 12C22.9091 5.97505 18.0249 1.09089 12 1.09089C5.97505 1.09089 1.09089 5.97505 1.09089 12C1.09089 18.0249 5.97505 22.9091 12 22.9091Z" fill="#111827"/>
<path fill-rule="evenodd" clip-rule="evenodd" d="M11.9999 1.09082C5.97501 1.09082 1.09082 5.97501 1.09082 11.9999C1.09082 18.0248 5.97501 22.909 11.9999 22.909C8.98745 22.909 6.54537 20.4669 6.54537 17.4545C6.54537 14.442 8.98745 11.9999 11.9999 11.9999C15.0124 11.9999 17.4545 9.55783 17.4545 6.54537C17.4545 3.5329 15.0124 1.09082 11.9999 1.09082Z" fill="white"/>
<path fill-rule="evenodd" clip-rule="evenodd" d="M11.9998 22.9089C18.0247 22.9089 22.9089 18.0247 22.9089 11.9998C22.9089 5.97495 18.0247 1.09076 11.9998 1.09076C15.0123 1.09076 17.4544 3.53284 17.4544 6.5453C17.4544 9.55776 15.0123 11.9998 11.9998 11.9998C8.98738 11.9998 6.5453 14.4419 6.5453 17.4544C6.5453 20.4669 8.98738 22.9089 11.9998 22.9089Z" fill="#111827"/>
<path d="M10.1722 20.7273V14.1819H13.2153C13.9426 14.1819 14.5837 14.319 15.1387 14.5933C15.6938 14.8614 16.1276 15.2385 16.4402 15.7247C16.7528 16.211 16.9091 16.7876 16.9091 17.4546C16.9091 18.1154 16.7528 18.692 16.4402 19.1845C16.1276 19.6707 15.6938 20.051 15.1387 20.3253C14.5837 20.5933 13.9426 20.7273 13.2153 20.7273H10.1722ZM11.7225 19.4837H13.1387C13.5853 19.4837 13.9713 19.4027 14.2966 19.2406C14.6284 19.0723 14.8836 18.8354 15.0622 18.5299C15.2472 18.2245 15.3397 17.866 15.3397 17.4546C15.3397 17.0369 15.2472 16.6785 15.0622 16.3793C14.8836 16.0738 14.6284 15.8401 14.2966 15.678C13.9713 15.5097 13.5853 15.4255 13.1387 15.4255H11.7225V19.4837ZM9.27271 17.9034V16.8936H13.4067V17.9034H9.27271Z" fill="white"/>
<path d="M10.3852 10.3636V4.60985H8.18188V3.27271H14.1819V4.60985H11.9786V10.3636H10.3852Z" fill="#111827"/>
</svg>
